<?xml version="1.0" encoding="UTF-8" standalone="no"?>
<!-- Created with Inkscape (http://www.inkscape.org/) -->

<svg
   width="210mm"
   height="297mm"
   viewBox="0 0 210 297"
   version="1.1"
   id="svg5"
   xmlns="http://www.w3.org/2000/svg"
   xmlns:svg="http://www.w3.org/2000/svg">
  <defs
     id="defs2" />
  <g
     id="layer1">
    <path
       id="path111"
       style="fill:#000000;stroke-width:0.264583"
       d="m 106.27413,67.774158 a 87.1129,87.1129 0 0 0 -87.113026,87.113032 87.1129,87.1129 0 0 0 87.113026,87.11303 87.1129,87.1129 0 0 0 87.11303,-87.11303 87.1129,87.1129 0 0 0 -87.11303,-87.113032 z m 1.06454,32.467782 a 57.129032,55.354839 0 0 1 57.12881,55.35476 57.129032,55.354839 0 0 1 -57.12881,55.35476 57.129032,55.354839 0 0 1 -57.128815,-55.35476 57.129032,55.354839 0 0 1 57.128815,-55.35476 z m -0.35502,27.85463 a 28.564516,27.67742 0 0 0 -28.564147,27.67738 28.564516,27.67742 0 0 0 28.564147,27.6779 28.564516,27.67742 0 0 0 28.56467,-27.6779 28.564516,27.67742 0 0 0 -28.56467,-27.67738 z" />
  </g>
</svg>
