<?xml version="1.0" encoding="UTF-8" standalone="no"?>
<!-- Created with Inkscape (http://www.inkscape.org/) -->

<svg
   width="62.395916mm"
   height="9.6969862mm"
   viewBox="0 0 62.395916 9.6969862"
   version="1.1"
   id="svg1"
   xml:space="preserve"
   xmlns="http://www.w3.org/2000/svg"
   xmlns:svg="http://www.w3.org/2000/svg"><defs
     id="defs1"><clipPath
       clipPathUnits="userSpaceOnUse"
       id="clipPath61"><rect
         style="opacity:1;fill:#000cff;fill-opacity:1;stroke:none;stroke-width:10.7326;stroke-dasharray:none;stroke-opacity:1"
         id="rect61"
         width="59.861977"
         height="9.7565098"
         x="829.47357"
         y="592.29895" /></clipPath><clipPath
       clipPathUnits="userSpaceOnUse"
       id="clipPath62"><rect
         style="opacity:1;fill:#000cff;fill-opacity:1;stroke:none;stroke-width:10.7326;stroke-dasharray:none;stroke-opacity:1"
         id="rect62"
         width="59.861977"
         height="9.7565098"
         x="829.47357"
         y="592.29895" /></clipPath><clipPath
       clipPathUnits="userSpaceOnUse"
       id="clipPath68"><path
         id="path69"
         style="opacity:1;fill:#000cff;stroke-width:10.7326"
         d="m 829.47358,592.29899 v 9.75651 h 54.88657 c -0.24111,-0.30581 -0.40799,-0.65344 -0.5674,-1.01132 -0.15057,-0.37301 -0.29133,-0.75372 -0.38343,-1.14617 -0.0455,-0.194 -0.0564,-0.3016 -0.0749,-0.43614 -0.0555,-0.14296 -0.10753,-0.28739 -0.15555,-0.43307 -0.0214,-0.077 -0.0427,-0.15399 -0.0641,-0.23098 -0.55862,-2.00732 0.37835,-3.20355 1.46036,-3.22564 0.17643,-0.004 0.35656,0.0259 0.53486,0.0863 0.17277,-0.0789 0.34073,-0.11845 0.4935,-0.11422 0.55441,0.0154 0.92057,0.52872 0.69662,1.17721 0.17481,0.30353 0.3224,0.66805 0.42736,1.10173 0.006,0.0236 0.0106,0.0465 0.0164,0.0698 0.0521,0.18992 0.13629,0.37147 0.22789,0.54517 0.0493,0.095 0.0164,0.0406 0.10903,0.15711 0.004,0.007 -0.0193,-0.009 -0.0243,-0.003 -0.005,0.006 0.0169,0.0233 0.01,0.0212 -0.39193,-0.12472 -0.0855,-0.0707 -0.35864,-0.11006 0.22873,0.0439 0.12689,0.0268 -0.0238,0.0635 -0.0172,0.004 0.0487,-0.007 0.0527,-0.006 1.16332,0.2095 2.04745,0.53994 2.59935,0.92811 v -7.18976 z m 59.86251,9.14569 c -0.30678,0.2164 -0.72311,0.42275 -1.2604,0.61082 h 1.2604 z m -3.99304,0.48575 c 0.0154,0.0414 0.0317,0.085 0.046,0.12507 h 0.23563 c -0.0979,-0.0378 -0.1919,-0.0794 -0.28162,-0.12507 z" /></clipPath></defs><g
     id="layer1"
     transform="translate(-826.93964,-566.9398)"><g
       id="g259"><g
         id="g260"><ellipse
           style="fill:none;fill-opacity:1;stroke:#ff7400;stroke-width:2.78261;stroke-linecap:round;stroke-dasharray:none;stroke-opacity:1"
           id="ellipse1"
           cx="889.28198"
           cy="599.99725"
           rx="6.36057"
           ry="6.2463775"
           clip-path="url(#clipPath62)"
           transform="translate(0,-25.419748)" /><path
           style="fill:none;fill-opacity:1;stroke:#ff7400;stroke-width:3.73674;stroke-dasharray:none;stroke-opacity:1"
           d="m 878.86588,601.13598 c 0,0 2.78461,0.0567 4.67269,-2.7064"
           id="path1"
           clip-path="url(#clipPath68)"
           transform="translate(0,-25.419748)" /><rect
           style="fill:#ff7400;fill-opacity:1;stroke:none;stroke-width:8.61022;stroke-dasharray:none;stroke-opacity:1"
           id="rect1"
           width="52.652084"
           height="4.0196528"
           x="829.47351"
           y="597.98749"
           clip-path="url(#clipPath61)"
           transform="matrix(0.89005346,0,0,0.69388862,94.461009,158.90221)" /><ellipse
           style="fill:none;fill-opacity:1;stroke:#ff7400;stroke-width:2.78261;stroke-linecap:round;stroke-dasharray:none;stroke-opacity:1"
           id="ellipse4"
           cx="889.28198"
           cy="599.99725"
           rx="6.36057"
           ry="6.2463775"
           clip-path="url(#clipPath62)"
           transform="matrix(-1,0,0,1,1716.2752,-25.418715)" /><path
           style="fill:none;fill-opacity:1;stroke:#ff7400;stroke-width:3.73674;stroke-dasharray:none;stroke-opacity:1"
           d="m 878.86588,601.13598 c 0,0 2.78461,0.0567 4.67269,-2.7064"
           id="path7"
           clip-path="url(#clipPath68)"
           transform="matrix(-1,0,0,1,1716.2752,-25.418715)" /></g></g></g></svg>
