<?xml version="1.0" encoding="UTF-8" standalone="no"?>
<!-- Created with Inkscape (http://www.inkscape.org/) -->

<svg
   width="124.99292mm"
   height="124.99275mm"
   viewBox="0 0 124.99292 124.99275"
   version="1.1"
   id="svg5"
   xmlns="http://www.w3.org/2000/svg"
   xmlns:svg="http://www.w3.org/2000/svg">
  <defs
     id="defs2" />
  <g
     id="layer1"
     transform="translate(-68.438936,-64.18112)">
    <path
       style="fill:none;fill-opacity:1;stroke:#000000;stroke-width:26.4583;stroke-linecap:round;stroke-linejoin:round;stroke-dasharray:none;stroke-opacity:1"
       id="path2046"
       d="M 88.442189,101.63671 A 49.322578,49.322578 0 0 1 155.95594,84.172186 49.322578,49.322578 0 0 1 173.45262,151.67761 49.322578,49.322578 0 0 1 105.95554,169.20644 49.322578,49.322578 0 0 1 88.394553,101.71772" />
    <path
       style="fill:#000000;fill-opacity:1;stroke:none;stroke-width:13.2292;stroke-linecap:round;stroke-linejoin:round;stroke-dasharray:none;stroke-opacity:1"
       id="path2046-4"
       d="m 110.04376,113.80216 a 24.661287,24.661287 0 0 1 33.75687,-8.73227 24.661287,24.661287 0 0 1 8.74834,33.75271 24.661287,24.661287 0 0 1 -33.74854,8.76442 24.661287,24.661287 0 0 1 -8.78049,-33.74436" />
  </g>
</svg>
